<mxfile host="Electron" modified="2023-06-13T06:10:17.814Z" agent="Mozilla/5.0 (Macintosh; Intel Mac OS X 10_15_7) AppleWebKit/537.36 (KHTML, like Gecko) draw.io/21.3.7 Chrome/112.0.5615.204 Electron/24.5.0 Safari/537.36" etag="Kc6p4hh2oFRrGzyp7rvy" version="21.3.7" type="device" pages="3">
  <diagram name="watch-delete" id="gUirNbu0ScKbw7nh3EWS">
    <mxGraphModel dx="954" dy="674" grid="1" gridSize="10" guides="1" tooltips="1" connect="1" arrows="1" fold="1" page="1" pageScale="1" pageWidth="827" pageHeight="1169" math="0" shadow="0">
      <root>
        <mxCell id="0" />
        <mxCell id="1" parent="0" />
        <mxCell id="B9S-aMqIS23RA5JLW0BM-3" value="leader-key" style="rounded=0;whiteSpace=wrap;html=1;sketch=1;curveFitting=1;jiggle=2;fontFamily=Helvetica;fillColor=#dae8fc;strokeColor=#6c8ebf;" parent="1" vertex="1">
          <mxGeometry x="70" y="460" width="120" height="60" as="geometry" />
        </mxCell>
        <mxCell id="B9S-aMqIS23RA5JLW0BM-15" style="edgeStyle=orthogonalEdgeStyle;sketch=1;hachureGap=4;jiggle=2;curveFitting=1;orthogonalLoop=1;jettySize=auto;html=1;exitX=0.25;exitY=0;exitDx=0;exitDy=0;entryX=0.75;entryY=0;entryDx=0;entryDy=0;fontFamily=Helvetica;fontSize=16;" parent="1" source="B9S-aMqIS23RA5JLW0BM-4" target="B9S-aMqIS23RA5JLW0BM-3" edge="1">
          <mxGeometry relative="1" as="geometry">
            <Array as="points">
              <mxPoint x="320" y="400" />
              <mxPoint x="160" y="400" />
            </Array>
          </mxGeometry>
        </mxCell>
        <mxCell id="B9S-aMqIS23RA5JLW0BM-4" value="slave-key1" style="rounded=0;whiteSpace=wrap;html=1;sketch=1;curveFitting=1;jiggle=2;fontFamily=Helvetica;fillColor=#dae8fc;strokeColor=#6c8ebf;" parent="1" vertex="1">
          <mxGeometry x="290" y="460" width="120" height="60" as="geometry" />
        </mxCell>
        <mxCell id="B9S-aMqIS23RA5JLW0BM-14" style="edgeStyle=orthogonalEdgeStyle;sketch=1;hachureGap=4;jiggle=2;curveFitting=1;orthogonalLoop=1;jettySize=auto;html=1;exitX=0.5;exitY=0;exitDx=0;exitDy=0;entryX=0.75;entryY=0;entryDx=0;entryDy=0;fontFamily=Helvetica;fontSize=16;" parent="1" source="B9S-aMqIS23RA5JLW0BM-5" target="B9S-aMqIS23RA5JLW0BM-4" edge="1">
          <mxGeometry relative="1" as="geometry">
            <Array as="points">
              <mxPoint x="560" y="400" />
              <mxPoint x="380" y="400" />
            </Array>
          </mxGeometry>
        </mxCell>
        <mxCell id="B9S-aMqIS23RA5JLW0BM-5" value="slave-key2" style="rounded=0;whiteSpace=wrap;html=1;sketch=1;curveFitting=1;jiggle=2;fontFamily=Helvetica;fillColor=#dae8fc;strokeColor=#6c8ebf;" parent="1" vertex="1">
          <mxGeometry x="500" y="460" width="120" height="60" as="geometry" />
        </mxCell>
        <mxCell id="B9S-aMqIS23RA5JLW0BM-16" value="watch" style="text;html=1;align=center;verticalAlign=middle;whiteSpace=wrap;rounded=0;fontSize=20;fontFamily=Helvetica;" parent="1" vertex="1">
          <mxGeometry x="210" y="370" width="60" height="20" as="geometry" />
        </mxCell>
        <mxCell id="B9S-aMqIS23RA5JLW0BM-17" value="watch" style="text;html=1;align=center;verticalAlign=middle;whiteSpace=wrap;rounded=0;fontSize=20;fontFamily=Helvetica;" parent="1" vertex="1">
          <mxGeometry x="440" y="370" width="60" height="20" as="geometry" />
        </mxCell>
        <mxCell id="B9S-aMqIS23RA5JLW0BM-25" value="leader-key" style="rounded=0;whiteSpace=wrap;html=1;sketch=1;curveFitting=1;jiggle=2;fontFamily=Helvetica;fillColor=#dae8fc;strokeColor=#6c8ebf;" parent="1" vertex="1">
          <mxGeometry x="75" y="830" width="120" height="60" as="geometry" />
        </mxCell>
        <mxCell id="B9S-aMqIS23RA5JLW0BM-34" style="edgeStyle=orthogonalEdgeStyle;sketch=1;hachureGap=4;jiggle=2;curveFitting=1;orthogonalLoop=1;jettySize=auto;html=1;exitX=0.5;exitY=0;exitDx=0;exitDy=0;entryX=0.5;entryY=0;entryDx=0;entryDy=0;fontFamily=Helvetica;fontSize=16;" parent="1" source="B9S-aMqIS23RA5JLW0BM-29" target="B9S-aMqIS23RA5JLW0BM-25" edge="1">
          <mxGeometry relative="1" as="geometry">
            <Array as="points">
              <mxPoint x="565" y="740" />
              <mxPoint x="135" y="740" />
            </Array>
          </mxGeometry>
        </mxCell>
        <mxCell id="B9S-aMqIS23RA5JLW0BM-29" value="slave-key2" style="rounded=0;whiteSpace=wrap;html=1;sketch=1;curveFitting=1;jiggle=2;fontFamily=Helvetica;fillColor=#dae8fc;strokeColor=#6c8ebf;" parent="1" vertex="1">
          <mxGeometry x="505" y="830" width="120" height="60" as="geometry" />
        </mxCell>
        <mxCell id="B9S-aMqIS23RA5JLW0BM-32" value="" style="shape=flexArrow;endArrow=classic;html=1;sketch=1;hachureGap=4;jiggle=2;curveFitting=1;fontFamily=Helvetica;fontSize=16;" parent="1" edge="1">
          <mxGeometry width="50" height="50" relative="1" as="geometry">
            <mxPoint x="350" y="560" as="sourcePoint" />
            <mxPoint x="350" y="710" as="targetPoint" />
          </mxGeometry>
        </mxCell>
        <mxCell id="B9S-aMqIS23RA5JLW0BM-33" value="slave-key1 被删除" style="text;html=1;align=center;verticalAlign=middle;whiteSpace=wrap;rounded=0;fontSize=20;fontFamily=Helvetica;" parent="1" vertex="1">
          <mxGeometry x="390" y="630" width="180" height="40" as="geometry" />
        </mxCell>
        <mxCell id="B9S-aMqIS23RA5JLW0BM-35" value="" style="shape=flexArrow;endArrow=classic;html=1;sketch=1;hachureGap=4;jiggle=2;curveFitting=1;fontFamily=Helvetica;fontSize=16;" parent="1" edge="1">
          <mxGeometry width="50" height="50" relative="1" as="geometry">
            <mxPoint x="350" y="930" as="sourcePoint" />
            <mxPoint x="350" y="1080" as="targetPoint" />
          </mxGeometry>
        </mxCell>
        <mxCell id="B9S-aMqIS23RA5JLW0BM-36" value="master-key1 被删除" style="text;html=1;align=center;verticalAlign=middle;whiteSpace=wrap;rounded=0;fontSize=20;fontFamily=Helvetica;" parent="1" vertex="1">
          <mxGeometry x="390" y="1000" width="180" height="40" as="geometry" />
        </mxCell>
        <mxCell id="B9S-aMqIS23RA5JLW0BM-39" value="slave-key2(master)" style="rounded=0;whiteSpace=wrap;html=1;sketch=1;curveFitting=1;jiggle=2;fontFamily=Helvetica;fillColor=#dae8fc;strokeColor=#6c8ebf;" parent="1" vertex="1">
          <mxGeometry x="294" y="1140" width="120" height="60" as="geometry" />
        </mxCell>
        <mxCell id="B9S-aMqIS23RA5JLW0BM-40" value="watch" style="text;html=1;align=center;verticalAlign=middle;whiteSpace=wrap;rounded=0;fontSize=20;fontFamily=Helvetica;" parent="1" vertex="1">
          <mxGeometry x="270" y="750" width="180" height="40" as="geometry" />
        </mxCell>
      </root>
    </mxGraphModel>
  </diagram>
  <diagram id="lYSRTpJREQscA20lhVtD" name="keepalive">
    <mxGraphModel dx="1781" dy="674" grid="1" gridSize="10" guides="1" tooltips="1" connect="1" arrows="1" fold="1" page="1" pageScale="1" pageWidth="827" pageHeight="1169" math="0" shadow="0">
      <root>
        <mxCell id="0" />
        <mxCell id="1" parent="0" />
        <mxCell id="p6yOJrGHDVz1I5h0hdoS-59" value="" style="edgeStyle=orthogonalEdgeStyle;sketch=1;hachureGap=4;jiggle=2;curveFitting=1;orthogonalLoop=1;jettySize=auto;html=1;fontFamily=Helvetica;fontSize=16;labelBackgroundColor=none;fontColor=default;fillColor=#fff2cc;strokeColor=#d6b656;" parent="1" source="p6yOJrGHDVz1I5h0hdoS-5" target="p6yOJrGHDVz1I5h0hdoS-58" edge="1">
          <mxGeometry relative="1" as="geometry" />
        </mxCell>
        <mxCell id="p6yOJrGHDVz1I5h0hdoS-5" value="sendKeepAliveLoop" style="text;html=1;align=center;verticalAlign=middle;whiteSpace=wrap;rounded=0;fontSize=20;fontFamily=Helvetica;fontStyle=1;labelBackgroundColor=none;" parent="1" vertex="1">
          <mxGeometry x="309.94" y="805" width="50" height="30" as="geometry" />
        </mxCell>
        <mxCell id="p6yOJrGHDVz1I5h0hdoS-18" style="edgeStyle=orthogonalEdgeStyle;sketch=1;hachureGap=4;jiggle=2;curveFitting=1;orthogonalLoop=1;jettySize=auto;html=1;exitX=1;exitY=0.5;exitDx=0;exitDy=0;fontFamily=Helvetica;fontSize=12;labelBackgroundColor=none;fontColor=default;fillColor=#dae8fc;strokeColor=#6c8ebf;" parent="1" source="p6yOJrGHDVz1I5h0hdoS-10" edge="1">
          <mxGeometry relative="1" as="geometry">
            <mxPoint x="-380" y="445.57142857142867" as="targetPoint" />
          </mxGeometry>
        </mxCell>
        <mxCell id="p6yOJrGHDVz1I5h0hdoS-10" value="创建session" style="rounded=0;whiteSpace=wrap;html=1;sketch=1;hachureGap=4;jiggle=2;curveFitting=1;fontFamily=Helvetica;fontSize=12;labelBackgroundColor=none;fillColor=#dae8fc;strokeColor=#6c8ebf;" parent="1" vertex="1">
          <mxGeometry x="-710" y="416" width="120" height="60" as="geometry" />
        </mxCell>
        <mxCell id="p6yOJrGHDVz1I5h0hdoS-35" value="" style="edgeStyle=orthogonalEdgeStyle;sketch=1;hachureGap=4;jiggle=2;curveFitting=1;orthogonalLoop=1;jettySize=auto;html=1;fontFamily=Helvetica;fontSize=16;labelBackgroundColor=none;fontColor=default;fillColor=#dae8fc;strokeColor=#6c8ebf;" parent="1" source="p6yOJrGHDVz1I5h0hdoS-14" target="p6yOJrGHDVz1I5h0hdoS-34" edge="1">
          <mxGeometry relative="1" as="geometry" />
        </mxCell>
        <mxCell id="p6yOJrGHDVz1I5h0hdoS-14" value="监听keepalive管道的消息" style="rounded=0;whiteSpace=wrap;html=1;sketch=1;hachureGap=4;jiggle=2;curveFitting=1;fontFamily=Helvetica;fontSize=12;labelBackgroundColor=none;fillColor=#dae8fc;strokeColor=#6c8ebf;" parent="1" vertex="1">
          <mxGeometry x="-710" y="810" width="120" height="60" as="geometry" />
        </mxCell>
        <mxCell id="p6yOJrGHDVz1I5h0hdoS-25" value="" style="edgeStyle=orthogonalEdgeStyle;sketch=1;hachureGap=4;jiggle=2;curveFitting=1;orthogonalLoop=1;jettySize=auto;html=1;fontFamily=Helvetica;fontSize=12;labelBackgroundColor=none;fontColor=default;fillColor=#dae8fc;strokeColor=#6c8ebf;" parent="1" source="p6yOJrGHDVz1I5h0hdoS-22" target="p6yOJrGHDVz1I5h0hdoS-24" edge="1">
          <mxGeometry relative="1" as="geometry" />
        </mxCell>
        <mxCell id="p6yOJrGHDVz1I5h0hdoS-22" value="leaseID加入keepalive id列表中" style="rounded=0;whiteSpace=wrap;html=1;sketch=1;hachureGap=4;jiggle=2;curveFitting=1;fontFamily=Helvetica;fontSize=12;labelBackgroundColor=none;fillColor=#dae8fc;strokeColor=#6c8ebf;" parent="1" vertex="1">
          <mxGeometry x="-363.75" y="540" width="127.5" height="70" as="geometry" />
        </mxCell>
        <mxCell id="p6yOJrGHDVz1I5h0hdoS-30" style="edgeStyle=orthogonalEdgeStyle;sketch=1;hachureGap=4;jiggle=2;curveFitting=1;orthogonalLoop=1;jettySize=auto;html=1;exitX=0.5;exitY=1;exitDx=0;exitDy=0;entryX=1;entryY=0.5;entryDx=0;entryDy=0;fontFamily=Helvetica;fontSize=12;labelBackgroundColor=none;fontColor=default;fillColor=#dae8fc;strokeColor=#6c8ebf;" parent="1" source="p6yOJrGHDVz1I5h0hdoS-24" target="p6yOJrGHDVz1I5h0hdoS-14" edge="1">
          <mxGeometry relative="1" as="geometry" />
        </mxCell>
        <mxCell id="p6yOJrGHDVz1I5h0hdoS-65" style="edgeStyle=orthogonalEdgeStyle;rounded=0;sketch=1;hachureGap=4;jiggle=2;curveFitting=1;orthogonalLoop=1;jettySize=auto;html=1;exitX=1;exitY=0.5;exitDx=0;exitDy=0;fontFamily=Architects Daughter;fontSource=https%3A%2F%2Ffonts.googleapis.com%2Fcss%3Ffamily%3DArchitects%2BDaughter;fontSize=16;fillColor=#fff2cc;strokeColor=#d6b656;" parent="1" source="p6yOJrGHDVz1I5h0hdoS-24" edge="1">
          <mxGeometry relative="1" as="geometry">
            <mxPoint x="-100" y="735.4705882352941" as="targetPoint" />
          </mxGeometry>
        </mxCell>
        <mxCell id="p6yOJrGHDVz1I5h0hdoS-24" value="初始化一次receKeepAliveLoop" style="rounded=0;whiteSpace=wrap;html=1;sketch=1;hachureGap=4;jiggle=2;curveFitting=1;fontFamily=Helvetica;fontSize=12;labelBackgroundColor=none;fillColor=#dae8fc;strokeColor=#6c8ebf;" parent="1" vertex="1">
          <mxGeometry x="-368.75" y="700" width="137.5" height="70" as="geometry" />
        </mxCell>
        <mxCell id="p6yOJrGHDVz1I5h0hdoS-66" value="" style="edgeStyle=orthogonalEdgeStyle;rounded=0;sketch=1;hachureGap=4;jiggle=2;curveFitting=1;orthogonalLoop=1;jettySize=auto;html=1;fontFamily=Architects Daughter;fontSource=https%3A%2F%2Ffonts.googleapis.com%2Fcss%3Ffamily%3DArchitects%2BDaughter;fontSize=16;fillColor=#dae8fc;strokeColor=#6c8ebf;" parent="1" source="p6yOJrGHDVz1I5h0hdoS-31" target="p6yOJrGHDVz1I5h0hdoS-10" edge="1">
          <mxGeometry relative="1" as="geometry" />
        </mxCell>
        <mxCell id="p6yOJrGHDVz1I5h0hdoS-31" value="concurrency.NewSession" style="text;html=1;strokeColor=none;fillColor=none;align=center;verticalAlign=middle;whiteSpace=wrap;rounded=0;fontSize=20;fontFamily=Helvetica;fontStyle=1;labelBackgroundColor=none;" parent="1" vertex="1">
          <mxGeometry x="-680" y="300" width="60" height="30" as="geometry" />
        </mxCell>
        <mxCell id="p6yOJrGHDVz1I5h0hdoS-68" style="edgeStyle=orthogonalEdgeStyle;rounded=0;sketch=1;hachureGap=4;jiggle=2;curveFitting=1;orthogonalLoop=1;jettySize=auto;html=1;exitX=0.5;exitY=1;exitDx=0;exitDy=0;entryX=0.5;entryY=0;entryDx=0;entryDy=0;fontFamily=Architects Daughter;fontSource=https%3A%2F%2Ffonts.googleapis.com%2Fcss%3Ffamily%3DArchitects%2BDaughter;fontSize=16;fillColor=#dae8fc;strokeColor=#6c8ebf;" parent="1" source="p6yOJrGHDVz1I5h0hdoS-32" target="p6yOJrGHDVz1I5h0hdoS-22" edge="1">
          <mxGeometry relative="1" as="geometry" />
        </mxCell>
        <mxCell id="p6yOJrGHDVz1I5h0hdoS-32" value="Leasor.KeepAlive（leaseID）" style="text;html=1;align=center;verticalAlign=middle;whiteSpace=wrap;rounded=0;fontSize=20;fontFamily=Helvetica;fontStyle=1;labelBackgroundColor=none;" parent="1" vertex="1">
          <mxGeometry x="-330" y="431" width="60" height="30" as="geometry" />
        </mxCell>
        <mxCell id="p6yOJrGHDVz1I5h0hdoS-44" value="" style="edgeStyle=orthogonalEdgeStyle;sketch=1;hachureGap=4;jiggle=2;curveFitting=1;orthogonalLoop=1;jettySize=auto;html=1;fontFamily=Helvetica;fontSize=16;labelBackgroundColor=none;fontColor=default;fillColor=#fff2cc;strokeColor=#d6b656;" parent="1" source="p6yOJrGHDVz1I5h0hdoS-33" target="p6yOJrGHDVz1I5h0hdoS-43" edge="1">
          <mxGeometry relative="1" as="geometry" />
        </mxCell>
        <mxCell id="p6yOJrGHDVz1I5h0hdoS-33" value="receKeepAliveLoop" style="text;html=1;align=center;verticalAlign=middle;whiteSpace=wrap;rounded=0;fontSize=20;fontFamily=Helvetica;fontStyle=1;labelBackgroundColor=none;" parent="1" vertex="1">
          <mxGeometry x="-20.060000000000002" y="720" width="60" height="30" as="geometry" />
        </mxCell>
        <mxCell id="p6yOJrGHDVz1I5h0hdoS-37" value="" style="edgeStyle=orthogonalEdgeStyle;sketch=1;hachureGap=4;jiggle=2;curveFitting=1;orthogonalLoop=1;jettySize=auto;html=1;fontFamily=Helvetica;fontSize=16;labelBackgroundColor=none;fontColor=default;fillColor=#d5e8d4;strokeColor=#82b366;" parent="1" source="p6yOJrGHDVz1I5h0hdoS-34" target="p6yOJrGHDVz1I5h0hdoS-36" edge="1">
          <mxGeometry relative="1" as="geometry" />
        </mxCell>
        <mxCell id="p6yOJrGHDVz1I5h0hdoS-34" value="返回session" style="rounded=0;whiteSpace=wrap;html=1;sketch=1;hachureGap=4;jiggle=2;curveFitting=1;fontFamily=Helvetica;fontSize=12;labelBackgroundColor=none;fillColor=#dae8fc;strokeColor=#6c8ebf;" parent="1" vertex="1">
          <mxGeometry x="-710" y="950" width="120" height="60" as="geometry" />
        </mxCell>
        <mxCell id="p6yOJrGHDVz1I5h0hdoS-36" value="" style="ellipse;whiteSpace=wrap;html=1;fontFamily=Helvetica;rounded=0;sketch=1;hachureGap=4;jiggle=2;curveFitting=1;fontSize=20;labelBackgroundColor=none;fillColor=#d5e8d4;strokeColor=#82b366;" parent="1" vertex="1">
          <mxGeometry x="-665" y="1080" width="30" height="30" as="geometry" />
        </mxCell>
        <mxCell id="p6yOJrGHDVz1I5h0hdoS-39" value="" style="edgeStyle=orthogonalEdgeStyle;sketch=1;hachureGap=4;jiggle=2;curveFitting=1;orthogonalLoop=1;jettySize=auto;html=1;fontFamily=Helvetica;fontSize=16;labelBackgroundColor=none;fontColor=default;fillColor=#d5e8d4;strokeColor=#82b366;" parent="1" source="p6yOJrGHDVz1I5h0hdoS-38" target="p6yOJrGHDVz1I5h0hdoS-31" edge="1">
          <mxGeometry relative="1" as="geometry" />
        </mxCell>
        <mxCell id="p6yOJrGHDVz1I5h0hdoS-38" value="" style="ellipse;whiteSpace=wrap;html=1;fontFamily=Helvetica;rounded=0;sketch=1;hachureGap=4;jiggle=2;curveFitting=1;fontSize=20;labelBackgroundColor=none;fillColor=#d5e8d4;strokeColor=#82b366;" parent="1" vertex="1">
          <mxGeometry x="-665" y="200" width="30" height="30" as="geometry" />
        </mxCell>
        <mxCell id="p6yOJrGHDVz1I5h0hdoS-46" style="edgeStyle=orthogonalEdgeStyle;sketch=1;hachureGap=4;jiggle=2;curveFitting=1;orthogonalLoop=1;jettySize=auto;html=1;exitX=1;exitY=0.5;exitDx=0;exitDy=0;fontFamily=Helvetica;fontSize=16;dashed=1;labelBackgroundColor=none;fontColor=default;fillColor=#fff2cc;strokeColor=#d6b656;" parent="1" source="p6yOJrGHDVz1I5h0hdoS-43" edge="1">
          <mxGeometry relative="1" as="geometry">
            <mxPoint x="239.94" y="819.8095238095236" as="targetPoint" />
          </mxGeometry>
        </mxCell>
        <mxCell id="p6yOJrGHDVz1I5h0hdoS-48" value="" style="edgeStyle=orthogonalEdgeStyle;sketch=1;hachureGap=4;jiggle=2;curveFitting=1;orthogonalLoop=1;jettySize=auto;html=1;fontFamily=Helvetica;fontSize=16;labelBackgroundColor=none;fontColor=default;fillColor=#fff2cc;strokeColor=#d6b656;" parent="1" source="p6yOJrGHDVz1I5h0hdoS-43" target="p6yOJrGHDVz1I5h0hdoS-47" edge="1">
          <mxGeometry relative="1" as="geometry" />
        </mxCell>
        <mxCell id="p6yOJrGHDVz1I5h0hdoS-43" value="协程启动发送循环" style="whiteSpace=wrap;html=1;sketch=1;hachureGap=4;jiggle=2;curveFitting=1;fontFamily=Helvetica;fontSize=12;labelBackgroundColor=none;fillColor=#fff2cc;strokeColor=#d6b656;" parent="1" vertex="1">
          <mxGeometry x="-50.06" y="790" width="120" height="60" as="geometry" />
        </mxCell>
        <mxCell id="p6yOJrGHDVz1I5h0hdoS-50" value="" style="edgeStyle=orthogonalEdgeStyle;sketch=1;hachureGap=4;jiggle=2;curveFitting=1;orthogonalLoop=1;jettySize=auto;html=1;fontFamily=Helvetica;fontSize=16;labelBackgroundColor=none;fontColor=default;fillColor=#fff2cc;strokeColor=#d6b656;" parent="1" source="p6yOJrGHDVz1I5h0hdoS-47" target="p6yOJrGHDVz1I5h0hdoS-49" edge="1">
          <mxGeometry relative="1" as="geometry" />
        </mxCell>
        <mxCell id="p6yOJrGHDVz1I5h0hdoS-47" value="stream接受响应数据" style="whiteSpace=wrap;html=1;sketch=1;hachureGap=4;jiggle=2;curveFitting=1;fontFamily=Helvetica;fontSize=12;labelBackgroundColor=none;fillColor=#fff2cc;strokeColor=#d6b656;" parent="1" vertex="1">
          <mxGeometry x="-50.06" y="955" width="120" height="60" as="geometry" />
        </mxCell>
        <mxCell id="p6yOJrGHDVz1I5h0hdoS-55" value="" style="edgeStyle=orthogonalEdgeStyle;sketch=1;hachureGap=4;jiggle=2;curveFitting=1;orthogonalLoop=1;jettySize=auto;html=1;fontFamily=Helvetica;fontSize=16;labelBackgroundColor=none;fontColor=default;fillColor=#fff2cc;strokeColor=#d6b656;" parent="1" source="p6yOJrGHDVz1I5h0hdoS-49" target="p6yOJrGHDVz1I5h0hdoS-54" edge="1">
          <mxGeometry relative="1" as="geometry" />
        </mxCell>
        <mxCell id="p6yOJrGHDVz1I5h0hdoS-49" value="修改nextKeepAliveTime，三分之一的时间就要续约" style="whiteSpace=wrap;html=1;sketch=1;hachureGap=4;jiggle=2;curveFitting=1;fontFamily=Helvetica;fontSize=12;labelBackgroundColor=none;fillColor=#fff2cc;strokeColor=#d6b656;" parent="1" vertex="1">
          <mxGeometry x="-50.06" y="1095" width="120" height="60" as="geometry" />
        </mxCell>
        <mxCell id="p6yOJrGHDVz1I5h0hdoS-56" style="edgeStyle=orthogonalEdgeStyle;sketch=1;hachureGap=4;jiggle=2;curveFitting=1;orthogonalLoop=1;jettySize=auto;html=1;exitX=0.5;exitY=1;exitDx=0;exitDy=0;entryX=0;entryY=0.5;entryDx=0;entryDy=0;fontFamily=Helvetica;fontSize=16;labelBackgroundColor=none;fontColor=default;fillColor=#fff2cc;strokeColor=#d6b656;" parent="1" source="p6yOJrGHDVz1I5h0hdoS-54" target="p6yOJrGHDVz1I5h0hdoS-47" edge="1">
          <mxGeometry relative="1" as="geometry">
            <Array as="points">
              <mxPoint x="9.939999999999998" y="1315" />
              <mxPoint x="-170.06" y="1315" />
              <mxPoint x="-170.06" y="985" />
            </Array>
          </mxGeometry>
        </mxCell>
        <mxCell id="p6yOJrGHDVz1I5h0hdoS-54" value="修改deadlineTime为TTL" style="whiteSpace=wrap;html=1;sketch=1;hachureGap=4;jiggle=2;curveFitting=1;fontFamily=Helvetica;fontSize=12;labelBackgroundColor=none;fillColor=#fff2cc;strokeColor=#d6b656;" parent="1" vertex="1">
          <mxGeometry x="-50.06" y="1235" width="120" height="60" as="geometry" />
        </mxCell>
        <mxCell id="p6yOJrGHDVz1I5h0hdoS-61" value="" style="edgeStyle=orthogonalEdgeStyle;rounded=0;sketch=1;hachureGap=4;jiggle=2;curveFitting=1;orthogonalLoop=1;jettySize=auto;html=1;fontFamily=Helvetica;fontSize=16;fillColor=#fff2cc;strokeColor=#d6b656;" parent="1" source="p6yOJrGHDVz1I5h0hdoS-58" target="p6yOJrGHDVz1I5h0hdoS-60" edge="1">
          <mxGeometry relative="1" as="geometry" />
        </mxCell>
        <mxCell id="p6yOJrGHDVz1I5h0hdoS-58" value="检查nextKeepAliveTime看是否需要续约" style="whiteSpace=wrap;html=1;sketch=1;hachureGap=4;jiggle=2;curveFitting=1;fontFamily=Helvetica;fontSize=12;labelBackgroundColor=none;fillColor=#fff2cc;strokeColor=#d6b656;" parent="1" vertex="1">
          <mxGeometry x="274.94" y="955" width="120" height="60" as="geometry" />
        </mxCell>
        <mxCell id="p6yOJrGHDVz1I5h0hdoS-63" value="" style="edgeStyle=orthogonalEdgeStyle;rounded=0;sketch=1;hachureGap=4;jiggle=2;curveFitting=1;orthogonalLoop=1;jettySize=auto;html=1;fontFamily=Helvetica;fontSize=16;fillColor=#fff2cc;strokeColor=#d6b656;" parent="1" source="p6yOJrGHDVz1I5h0hdoS-60" target="p6yOJrGHDVz1I5h0hdoS-62" edge="1">
          <mxGeometry relative="1" as="geometry" />
        </mxCell>
        <mxCell id="p6yOJrGHDVz1I5h0hdoS-60" value="加入到tosend 队列里面" style="whiteSpace=wrap;html=1;sketch=1;hachureGap=4;jiggle=2;curveFitting=1;fontFamily=Helvetica;fontSize=12;labelBackgroundColor=none;fillColor=#fff2cc;strokeColor=#d6b656;" parent="1" vertex="1">
          <mxGeometry x="274.94" y="1095" width="120" height="60" as="geometry" />
        </mxCell>
        <mxCell id="p6yOJrGHDVz1I5h0hdoS-64" style="edgeStyle=orthogonalEdgeStyle;rounded=0;sketch=1;hachureGap=4;jiggle=2;curveFitting=1;orthogonalLoop=1;jettySize=auto;html=1;exitX=0.5;exitY=1;exitDx=0;exitDy=0;entryX=0;entryY=0.5;entryDx=0;entryDy=0;fontFamily=Helvetica;fontSize=16;fillColor=#fff2cc;strokeColor=#d6b656;" parent="1" source="p6yOJrGHDVz1I5h0hdoS-62" target="p6yOJrGHDVz1I5h0hdoS-58" edge="1">
          <mxGeometry relative="1" as="geometry">
            <Array as="points">
              <mxPoint x="335" y="1315" />
              <mxPoint x="190" y="1315" />
              <mxPoint x="190" y="985" />
            </Array>
          </mxGeometry>
        </mxCell>
        <mxCell id="p6yOJrGHDVz1I5h0hdoS-62" value="批量通过stream进行续约请求" style="whiteSpace=wrap;html=1;sketch=1;hachureGap=4;jiggle=2;curveFitting=1;fontFamily=Helvetica;fontSize=12;labelBackgroundColor=none;fillColor=#fff2cc;strokeColor=#d6b656;" parent="1" vertex="1">
          <mxGeometry x="274.94" y="1235" width="120" height="60" as="geometry" />
        </mxCell>
      </root>
    </mxGraphModel>
  </diagram>
  <diagram id="s64qufOeaRE0Bzvv5dpF" name="election">
    <mxGraphModel dx="954" dy="674" grid="1" gridSize="10" guides="1" tooltips="1" connect="1" arrows="1" fold="1" page="1" pageScale="1" pageWidth="827" pageHeight="1169" math="0" shadow="0">
      <root>
        <mxCell id="ysyo81UnkHjkYqfB1rXM-0" />
        <mxCell id="ysyo81UnkHjkYqfB1rXM-1" parent="ysyo81UnkHjkYqfB1rXM-0" />
        <mxCell id="ysyo81UnkHjkYqfB1rXM-52" value="" style="rounded=0;whiteSpace=wrap;html=1;fillColor=#dae8fc;strokeColor=#6c8ebf;dashed=1;sketch=1;" parent="ysyo81UnkHjkYqfB1rXM-1" vertex="1">
          <mxGeometry x="70" y="460" width="250" height="230" as="geometry" />
        </mxCell>
        <mxCell id="ysyo81UnkHjkYqfB1rXM-8" value="B Service" style="rounded=0;whiteSpace=wrap;html=1;flipV=0;flipH=0;sketch=1;fillColor=#d5e8d4;strokeColor=#82b366;" parent="ysyo81UnkHjkYqfB1rXM-1" vertex="1">
          <mxGeometry x="470" y="290" width="120" height="60" as="geometry" />
        </mxCell>
        <mxCell id="ysyo81UnkHjkYqfB1rXM-9" value="&lt;span&gt;etcd-server&lt;/span&gt;" style="shape=process;whiteSpace=wrap;html=1;backgroundOutline=1;flipV=0;flipH=0;sketch=1;fillColor=#f5f5f5;strokeColor=#666666;fontColor=#333333;" parent="ysyo81UnkHjkYqfB1rXM-1" vertex="1">
          <mxGeometry x="250" y="290" width="120" height="60" as="geometry" />
        </mxCell>
        <mxCell id="ysyo81UnkHjkYqfB1rXM-10" value="A Service" style="rounded=0;whiteSpace=wrap;html=1;flipV=0;flipH=0;sketch=1;fillColor=#dae8fc;strokeColor=#6c8ebf;" parent="ysyo81UnkHjkYqfB1rXM-1" vertex="1">
          <mxGeometry x="30" y="290" width="120" height="60" as="geometry" />
        </mxCell>
        <mxCell id="ysyo81UnkHjkYqfB1rXM-23" value="" style="endArrow=none;html=1;entryX=0.5;entryY=1;entryDx=0;entryDy=0;sketch=1;" parent="ysyo81UnkHjkYqfB1rXM-1" target="ysyo81UnkHjkYqfB1rXM-9" edge="1">
          <mxGeometry width="50" height="50" relative="1" as="geometry">
            <mxPoint x="310" y="940" as="sourcePoint" />
            <mxPoint x="500" y="560" as="targetPoint" />
          </mxGeometry>
        </mxCell>
        <mxCell id="ysyo81UnkHjkYqfB1rXM-25" value="" style="endArrow=none;html=1;entryX=0.5;entryY=1;entryDx=0;entryDy=0;sketch=1;" parent="ysyo81UnkHjkYqfB1rXM-1" edge="1">
          <mxGeometry width="50" height="50" relative="1" as="geometry">
            <mxPoint x="90" y="940" as="sourcePoint" />
            <mxPoint x="89.5" y="350" as="targetPoint" />
          </mxGeometry>
        </mxCell>
        <mxCell id="ysyo81UnkHjkYqfB1rXM-26" value="" style="endArrow=none;html=1;entryX=0.5;entryY=1;entryDx=0;entryDy=0;sketch=1;" parent="ysyo81UnkHjkYqfB1rXM-1" edge="1">
          <mxGeometry width="50" height="50" relative="1" as="geometry">
            <mxPoint x="529.5" y="940" as="sourcePoint" />
            <mxPoint x="529.5" y="350" as="targetPoint" />
          </mxGeometry>
        </mxCell>
        <mxCell id="ysyo81UnkHjkYqfB1rXM-27" value="" style="endArrow=classic;html=1;sketch=1;" parent="ysyo81UnkHjkYqfB1rXM-1" edge="1">
          <mxGeometry width="50" height="50" relative="1" as="geometry">
            <mxPoint x="110" y="420" as="sourcePoint" />
            <mxPoint x="290" y="420" as="targetPoint" />
          </mxGeometry>
        </mxCell>
        <mxCell id="ysyo81UnkHjkYqfB1rXM-30" value="Campagin" style="edgeLabel;html=1;align=center;verticalAlign=middle;resizable=0;points=[];sketch=1;" parent="ysyo81UnkHjkYqfB1rXM-27" vertex="1" connectable="0">
          <mxGeometry x="-0.0889" y="4" relative="1" as="geometry">
            <mxPoint as="offset" />
          </mxGeometry>
        </mxCell>
        <mxCell id="ysyo81UnkHjkYqfB1rXM-29" value="Campaign" style="endArrow=classic;html=1;sketch=1;" parent="ysyo81UnkHjkYqfB1rXM-1" edge="1">
          <mxGeometry width="50" height="50" relative="1" as="geometry">
            <mxPoint x="510" y="450" as="sourcePoint" />
            <mxPoint x="330" y="450" as="targetPoint" />
          </mxGeometry>
        </mxCell>
        <mxCell id="ysyo81UnkHjkYqfB1rXM-32" value="Success" style="endArrow=classic;html=1;sketch=1;" parent="ysyo81UnkHjkYqfB1rXM-1" edge="1">
          <mxGeometry width="50" height="50" relative="1" as="geometry">
            <mxPoint x="280" y="440" as="sourcePoint" />
            <mxPoint x="110" y="440" as="targetPoint" />
          </mxGeometry>
        </mxCell>
        <mxCell id="ysyo81UnkHjkYqfB1rXM-34" value="" style="endArrow=classic;html=1;sketch=1;" parent="ysyo81UnkHjkYqfB1rXM-1" edge="1">
          <mxGeometry width="50" height="50" relative="1" as="geometry">
            <mxPoint x="330" y="470" as="sourcePoint" />
            <mxPoint x="510" y="470" as="targetPoint" />
          </mxGeometry>
        </mxCell>
        <mxCell id="ysyo81UnkHjkYqfB1rXM-35" value="Fail" style="edgeLabel;html=1;align=center;verticalAlign=middle;resizable=0;points=[];sketch=1;" parent="ysyo81UnkHjkYqfB1rXM-34" vertex="1" connectable="0">
          <mxGeometry x="-0.0889" y="4" relative="1" as="geometry">
            <mxPoint as="offset" />
          </mxGeometry>
        </mxCell>
        <mxCell id="ysyo81UnkHjkYqfB1rXM-40" value="watch 前面的key delete事件" style="endArrow=classic;html=1;sketch=1;" parent="ysyo81UnkHjkYqfB1rXM-1" edge="1">
          <mxGeometry width="50" height="50" relative="1" as="geometry">
            <mxPoint x="510" y="510" as="sourcePoint" />
            <mxPoint x="330" y="510" as="targetPoint" />
          </mxGeometry>
        </mxCell>
        <mxCell id="ysyo81UnkHjkYqfB1rXM-43" value="" style="endArrow=classic;html=1;sketch=1;" parent="ysyo81UnkHjkYqfB1rXM-1" edge="1">
          <mxGeometry width="50" height="50" relative="1" as="geometry">
            <mxPoint x="110" y="494" as="sourcePoint" />
            <mxPoint x="290" y="494" as="targetPoint" />
          </mxGeometry>
        </mxCell>
        <mxCell id="ysyo81UnkHjkYqfB1rXM-44" value="keepalive" style="edgeLabel;html=1;align=center;verticalAlign=middle;resizable=0;points=[];sketch=1;" parent="ysyo81UnkHjkYqfB1rXM-43" vertex="1" connectable="0">
          <mxGeometry x="-0.0889" y="4" relative="1" as="geometry">
            <mxPoint as="offset" />
          </mxGeometry>
        </mxCell>
        <mxCell id="ysyo81UnkHjkYqfB1rXM-45" value="Success" style="endArrow=classic;html=1;sketch=1;" parent="ysyo81UnkHjkYqfB1rXM-1" edge="1">
          <mxGeometry width="50" height="50" relative="1" as="geometry">
            <mxPoint x="280" y="514" as="sourcePoint" />
            <mxPoint x="110" y="514" as="targetPoint" />
          </mxGeometry>
        </mxCell>
        <mxCell id="ysyo81UnkHjkYqfB1rXM-46" value="Success" style="endArrow=classic;html=1;sketch=1;" parent="ysyo81UnkHjkYqfB1rXM-1" edge="1">
          <mxGeometry width="50" height="50" relative="1" as="geometry">
            <mxPoint x="280" y="584" as="sourcePoint" />
            <mxPoint x="110" y="584" as="targetPoint" />
          </mxGeometry>
        </mxCell>
        <mxCell id="ysyo81UnkHjkYqfB1rXM-47" value="" style="endArrow=classic;html=1;sketch=1;" parent="ysyo81UnkHjkYqfB1rXM-1" edge="1">
          <mxGeometry width="50" height="50" relative="1" as="geometry">
            <mxPoint x="110" y="564" as="sourcePoint" />
            <mxPoint x="290" y="564" as="targetPoint" />
          </mxGeometry>
        </mxCell>
        <mxCell id="ysyo81UnkHjkYqfB1rXM-48" value="keepalive" style="edgeLabel;html=1;align=center;verticalAlign=middle;resizable=0;points=[];sketch=1;" parent="ysyo81UnkHjkYqfB1rXM-47" vertex="1" connectable="0">
          <mxGeometry x="-0.0889" y="4" relative="1" as="geometry">
            <mxPoint as="offset" />
          </mxGeometry>
        </mxCell>
        <mxCell id="ysyo81UnkHjkYqfB1rXM-49" value="Success" style="endArrow=classic;html=1;sketch=1;" parent="ysyo81UnkHjkYqfB1rXM-1" edge="1">
          <mxGeometry width="50" height="50" relative="1" as="geometry">
            <mxPoint x="280" y="654" as="sourcePoint" />
            <mxPoint x="110" y="654" as="targetPoint" />
          </mxGeometry>
        </mxCell>
        <mxCell id="ysyo81UnkHjkYqfB1rXM-50" value="" style="endArrow=classic;html=1;sketch=1;" parent="ysyo81UnkHjkYqfB1rXM-1" edge="1">
          <mxGeometry width="50" height="50" relative="1" as="geometry">
            <mxPoint x="110" y="634" as="sourcePoint" />
            <mxPoint x="290" y="634" as="targetPoint" />
          </mxGeometry>
        </mxCell>
        <mxCell id="ysyo81UnkHjkYqfB1rXM-51" value="keepalive" style="edgeLabel;html=1;align=center;verticalAlign=middle;resizable=0;points=[];sketch=1;" parent="ysyo81UnkHjkYqfB1rXM-50" vertex="1" connectable="0">
          <mxGeometry x="-0.0889" y="4" relative="1" as="geometry">
            <mxPoint as="offset" />
          </mxGeometry>
        </mxCell>
        <mxCell id="ysyo81UnkHjkYqfB1rXM-58" value="Session断开没有续约" style="rounded=0;whiteSpace=wrap;html=1;fillColor=#f8cecc;strokeColor=#b85450;sketch=1;" parent="ysyo81UnkHjkYqfB1rXM-1" vertex="1">
          <mxGeometry x="135" y="720" width="120" height="60" as="geometry" />
        </mxCell>
        <mxCell id="ysyo81UnkHjkYqfB1rXM-59" value="" style="endArrow=classic;html=1;sketch=1;" parent="ysyo81UnkHjkYqfB1rXM-1" edge="1">
          <mxGeometry width="50" height="50" relative="1" as="geometry">
            <mxPoint x="324" y="790" as="sourcePoint" />
            <mxPoint x="504" y="790" as="targetPoint" />
          </mxGeometry>
        </mxCell>
        <mxCell id="ysyo81UnkHjkYqfB1rXM-60" value="接收到delete事件" style="edgeLabel;html=1;align=center;verticalAlign=middle;resizable=0;points=[];sketch=1;" parent="ysyo81UnkHjkYqfB1rXM-59" vertex="1" connectable="0">
          <mxGeometry x="-0.0889" y="4" relative="1" as="geometry">
            <mxPoint as="offset" />
          </mxGeometry>
        </mxCell>
        <mxCell id="ysyo81UnkHjkYqfB1rXM-61" value="查看是否还有新key" style="endArrow=classic;html=1;sketch=1;" parent="ysyo81UnkHjkYqfB1rXM-1" edge="1">
          <mxGeometry width="50" height="50" relative="1" as="geometry">
            <mxPoint x="510" y="820" as="sourcePoint" />
            <mxPoint x="330" y="820" as="targetPoint" />
          </mxGeometry>
        </mxCell>
        <mxCell id="ysyo81UnkHjkYqfB1rXM-62" value="" style="endArrow=classic;html=1;sketch=1;" parent="ysyo81UnkHjkYqfB1rXM-1" edge="1">
          <mxGeometry width="50" height="50" relative="1" as="geometry">
            <mxPoint x="330" y="840" as="sourcePoint" />
            <mxPoint x="510" y="840" as="targetPoint" />
          </mxGeometry>
        </mxCell>
        <mxCell id="ysyo81UnkHjkYqfB1rXM-63" value="返回无新key" style="edgeLabel;html=1;align=center;verticalAlign=middle;resizable=0;points=[];sketch=1;" parent="ysyo81UnkHjkYqfB1rXM-62" vertex="1" connectable="0">
          <mxGeometry x="-0.0889" y="4" relative="1" as="geometry">
            <mxPoint as="offset" />
          </mxGeometry>
        </mxCell>
        <mxCell id="ysyo81UnkHjkYqfB1rXM-64" value="自己成为最新的key，竞选成功master" style="rounded=0;whiteSpace=wrap;html=1;sketch=1;strokeColor=#82b366;fillColor=#d5e8d4;" parent="ysyo81UnkHjkYqfB1rXM-1" vertex="1">
          <mxGeometry x="354" y="860" width="120" height="60" as="geometry" />
        </mxCell>
        <mxCell id="mzUw8TAP6m5Yd1GBs4cP-4" value="" style="edgeStyle=orthogonalEdgeStyle;rounded=0;orthogonalLoop=1;jettySize=auto;html=1;" edge="1" parent="ysyo81UnkHjkYqfB1rXM-1" source="mzUw8TAP6m5Yd1GBs4cP-0" target="mzUw8TAP6m5Yd1GBs4cP-3">
          <mxGeometry relative="1" as="geometry">
            <Array as="points">
              <mxPoint x="310" y="1500" />
              <mxPoint x="310" y="1500" />
            </Array>
          </mxGeometry>
        </mxCell>
        <mxCell id="mzUw8TAP6m5Yd1GBs4cP-0" value="NG" style="rounded=0;whiteSpace=wrap;html=1;" vertex="1" parent="ysyo81UnkHjkYqfB1rXM-1">
          <mxGeometry x="280" y="1400" width="120" height="60" as="geometry" />
        </mxCell>
        <mxCell id="mzUw8TAP6m5Yd1GBs4cP-1" value="client" style="shape=umlActor;verticalLabelPosition=bottom;verticalAlign=top;html=1;outlineConnect=0;" vertex="1" parent="ysyo81UnkHjkYqfB1rXM-1">
          <mxGeometry x="325" y="1080" width="30" height="60" as="geometry" />
        </mxCell>
        <mxCell id="mzUw8TAP6m5Yd1GBs4cP-3" value="Controller 处理" style="rounded=0;whiteSpace=wrap;html=1;" vertex="1" parent="ysyo81UnkHjkYqfB1rXM-1">
          <mxGeometry x="280" y="1540" width="120" height="60" as="geometry" />
        </mxCell>
        <mxCell id="mzUw8TAP6m5Yd1GBs4cP-5" value="" style="endArrow=classic;html=1;rounded=0;entryX=0.675;entryY=1.05;entryDx=0;entryDy=0;entryPerimeter=0;" edge="1" parent="ysyo81UnkHjkYqfB1rXM-1" target="mzUw8TAP6m5Yd1GBs4cP-0">
          <mxGeometry width="50" height="50" relative="1" as="geometry">
            <mxPoint x="361" y="1535" as="sourcePoint" />
            <mxPoint x="405" y="1490" as="targetPoint" />
          </mxGeometry>
        </mxCell>
        <mxCell id="mzUw8TAP6m5Yd1GBs4cP-6" value="" style="edgeStyle=orthogonalEdgeStyle;rounded=0;orthogonalLoop=1;jettySize=auto;html=1;" edge="1" parent="ysyo81UnkHjkYqfB1rXM-1">
          <mxGeometry relative="1" as="geometry">
            <mxPoint x="309.5" y="1320" as="sourcePoint" />
            <mxPoint x="309.5" y="1400" as="targetPoint" />
            <Array as="points">
              <mxPoint x="309.5" y="1360" />
              <mxPoint x="309.5" y="1360" />
            </Array>
          </mxGeometry>
        </mxCell>
        <mxCell id="mzUw8TAP6m5Yd1GBs4cP-7" value="" style="endArrow=classic;html=1;rounded=0;entryX=0.675;entryY=1.05;entryDx=0;entryDy=0;entryPerimeter=0;" edge="1" parent="ysyo81UnkHjkYqfB1rXM-1">
          <mxGeometry width="50" height="50" relative="1" as="geometry">
            <mxPoint x="360" y="1392" as="sourcePoint" />
            <mxPoint x="360" y="1320" as="targetPoint" />
          </mxGeometry>
        </mxCell>
        <mxCell id="mzUw8TAP6m5Yd1GBs4cP-8" value="Network" style="rounded=0;whiteSpace=wrap;html=1;" vertex="1" parent="ysyo81UnkHjkYqfB1rXM-1">
          <mxGeometry x="280" y="1260" width="120" height="60" as="geometry" />
        </mxCell>
        <mxCell id="mzUw8TAP6m5Yd1GBs4cP-9" value="" style="edgeStyle=orthogonalEdgeStyle;rounded=0;orthogonalLoop=1;jettySize=auto;html=1;" edge="1" parent="ysyo81UnkHjkYqfB1rXM-1">
          <mxGeometry relative="1" as="geometry">
            <mxPoint x="318.5" y="1180" as="sourcePoint" />
            <mxPoint x="318.5" y="1260" as="targetPoint" />
            <Array as="points">
              <mxPoint x="318.5" y="1220" />
              <mxPoint x="318.5" y="1220" />
            </Array>
          </mxGeometry>
        </mxCell>
        <mxCell id="mzUw8TAP6m5Yd1GBs4cP-10" value="" style="endArrow=classic;html=1;rounded=0;entryX=0.675;entryY=1.05;entryDx=0;entryDy=0;entryPerimeter=0;" edge="1" parent="ysyo81UnkHjkYqfB1rXM-1">
          <mxGeometry width="50" height="50" relative="1" as="geometry">
            <mxPoint x="369" y="1252" as="sourcePoint" />
            <mxPoint x="369" y="1180" as="targetPoint" />
          </mxGeometry>
        </mxCell>
        <mxCell id="mzUw8TAP6m5Yd1GBs4cP-13" value="1" style="ellipse;whiteSpace=wrap;html=1;aspect=fixed;" vertex="1" parent="ysyo81UnkHjkYqfB1rXM-1">
          <mxGeometry x="260" y="1200" width="31" height="31" as="geometry" />
        </mxCell>
        <mxCell id="mzUw8TAP6m5Yd1GBs4cP-15" value="2" style="ellipse;whiteSpace=wrap;html=1;aspect=fixed;" vertex="1" parent="ysyo81UnkHjkYqfB1rXM-1">
          <mxGeometry x="260" y="1350" width="31" height="31" as="geometry" />
        </mxCell>
        <mxCell id="mzUw8TAP6m5Yd1GBs4cP-16" value="3" style="ellipse;whiteSpace=wrap;html=1;aspect=fixed;" vertex="1" parent="ysyo81UnkHjkYqfB1rXM-1">
          <mxGeometry x="260" y="1490" width="31" height="31" as="geometry" />
        </mxCell>
        <mxCell id="mzUw8TAP6m5Yd1GBs4cP-17" value="6" style="ellipse;whiteSpace=wrap;html=1;aspect=fixed;" vertex="1" parent="ysyo81UnkHjkYqfB1rXM-1">
          <mxGeometry x="390" y="1200" width="31" height="31" as="geometry" />
        </mxCell>
        <mxCell id="mzUw8TAP6m5Yd1GBs4cP-18" value="5" style="ellipse;whiteSpace=wrap;html=1;aspect=fixed;" vertex="1" parent="ysyo81UnkHjkYqfB1rXM-1">
          <mxGeometry x="390" y="1350" width="31" height="31" as="geometry" />
        </mxCell>
        <mxCell id="mzUw8TAP6m5Yd1GBs4cP-19" value="4" style="ellipse;whiteSpace=wrap;html=1;aspect=fixed;" vertex="1" parent="ysyo81UnkHjkYqfB1rXM-1">
          <mxGeometry x="390" y="1490" width="31" height="31" as="geometry" />
        </mxCell>
        <mxCell id="mzUw8TAP6m5Yd1GBs4cP-20" value="&lt;h1 style=&quot;font-size: 14px;&quot;&gt;&lt;br&gt;&lt;/h1&gt;&lt;div&gt;1. 路径判断&lt;/div&gt;&lt;div&gt;2. 用户权限判断&lt;/div&gt;&lt;div&gt;3. Review 单 ...&lt;/div&gt;" style="text;html=1;strokeColor=none;fillColor=none;spacing=5;spacingTop=-20;whiteSpace=wrap;overflow=hidden;rounded=0;" vertex="1" parent="ysyo81UnkHjkYqfB1rXM-1">
          <mxGeometry x="450" y="1530" width="190" height="120" as="geometry" />
        </mxCell>
      </root>
    </mxGraphModel>
  </diagram>
</mxfile>
